<svg width="529" height="51" viewBox="0 0 529 51" fill="none" xmlns="http://www.w3.org/2000/svg">
<path d="M0.394375 50H11.9144L12.5624 29.912L19.4024 40.352H20.2664L27.1064 29.984L27.7544 50H39.2744L37.3304 0.535997H35.8184L19.7624 25.016L3.85038 0.535997H2.33838L0.394375 50ZM62.4303 50.648C72.7983 50.648 81.9423 43.16 81.9423 26.24V24.8C81.9423 8.096 72.7983 0.463998 62.4303 0.463998C52.0623 0.463998 42.9183 8.096 42.9183 24.8V26.24C42.9183 43.16 52.0623 50.648 62.4303 50.648ZM62.4303 40.568C58.1103 40.568 54.8703 36.32 54.8703 26.096V24.944C54.8703 14.864 58.1103 10.544 62.4303 10.544C66.7503 10.544 69.9903 14.864 69.9903 24.944V26.096C69.9903 36.32 66.7503 40.568 62.4303 40.568ZM85.6131 50H97.1331L97.7811 29.912L104.621 40.352H105.485L112.325 29.984L112.973 50H124.493L122.549 0.535997H121.037L104.981 25.016L89.0691 0.535997H87.5571L85.6131 50ZM147.649 50.648C158.017 50.648 167.161 43.16 167.161 26.24V24.8C167.161 8.096 158.017 0.463998 147.649 0.463998C137.281 0.463998 128.137 8.096 128.137 24.8V26.24C128.137 43.16 137.281 50.648 147.649 50.648ZM147.649 40.568C143.329 40.568 140.089 36.32 140.089 26.096V24.944C140.089 14.864 143.329 10.544 147.649 10.544C151.969 10.544 155.209 14.864 155.209 24.944V26.096C155.209 36.32 151.969 40.568 147.649 40.568ZM198.255 50.576C202.071 50.576 205.455 49.856 208.407 48.416L209.487 50H222.015L216.327 41.504C219.063 37.184 220.215 31.496 220.215 25.16V24.44H210.999V24.872C210.999 27.608 210.639 29.984 209.991 32.072L204.447 23.72C210.423 20.696 213.087 17.384 213.087 11.912V11.552C213.087 4.64 208.335 0.463998 200.559 0.463998C193.359 0.463998 187.743 4.424 187.743 12.272V12.848C187.743 15.656 188.751 19.256 191.055 22.64C185.079 26.024 181.983 30.128 181.983 36.248V36.824C181.983 45.248 188.031 50.576 198.255 50.576ZM199.983 41.72C195.879 41.72 193.647 39.2 193.647 35.312V34.88C193.647 33.08 194.295 31.208 195.519 29.48L203.295 40.928C202.215 41.432 201.063 41.72 199.983 41.72ZM198.183 12.128V11.84C198.183 9.896 199.047 8.672 200.775 8.672C202.431 8.672 203.295 9.824 203.295 11.84V12.128C203.295 14.36 202.575 16.232 200.559 17.888C199.119 15.872 198.183 14 198.183 12.128ZM237.579 50H251.691C263.139 50 269.475 44.96 269.475 35.744V35.024C269.475 28.04 265.515 25.16 260.835 23.576C264.579 22.352 267.675 18.968 267.675 14.432V13.856C267.675 5.864 261.195 1.04 252.843 1.04H237.579V50ZM248.595 40.424V28.76H251.619C255.723 28.76 258.027 30.632 258.027 34.304V34.88C258.027 38.552 255.651 40.424 251.619 40.424H248.595ZM248.595 20.12V10.616H251.763C254.715 10.616 256.659 12.2 256.659 15.152V15.584C256.659 18.536 254.787 20.12 251.619 20.12H248.595ZM273.79 50H285.454V33.8H288.406L294.526 50H306.622L298.99 30.56C302.95 28.184 305.686 24.152 305.686 18.104V17.384C305.686 6.584 298.198 1.04 287.974 1.04H273.79V50ZM285.454 11.192H287.47C291.358 11.192 294.094 12.992 294.094 17.528V18.032C294.094 22.64 291.358 24.8 287.47 24.8H285.454V11.192ZM328.844 50.648C339.212 50.648 348.356 43.16 348.356 26.24V24.8C348.356 8.096 339.212 0.463998 328.844 0.463998C318.476 0.463998 309.332 8.096 309.332 24.8V26.24C309.332 43.16 318.476 50.648 328.844 50.648ZM328.844 40.568C324.524 40.568 321.284 36.32 321.284 26.096V24.944C321.284 14.864 324.524 10.544 328.844 10.544C333.164 10.544 336.404 14.864 336.404 24.944V26.096C336.404 36.32 333.164 40.568 328.844 40.568ZM370.891 50.648C381.259 50.648 390.403 43.16 390.403 26.24V24.8C390.403 8.096 381.259 0.463998 370.891 0.463998C360.523 0.463998 351.379 8.096 351.379 24.8V26.24C351.379 43.16 360.523 50.648 370.891 50.648ZM370.891 40.568C366.571 40.568 363.331 36.32 363.331 26.096V24.944C363.331 14.864 366.571 10.544 370.891 10.544C375.211 10.544 378.451 14.864 378.451 24.944V26.096C378.451 36.32 375.211 40.568 370.891 40.568ZM429.138 1.04H416.97L409.482 15.008C408.618 16.592 407.466 19.112 406.602 21.2V1.04H394.938V50H406.602V36.608L408.546 33.152L416.61 50H429.786L416.97 23.72L429.138 1.04ZM433.399 50H460.111V39.776H445.063V1.04H433.399V50ZM469.635 50H481.299V32L494.043 1.04H482.523L477.483 14.648C476.475 17.312 475.683 21.056 475.683 21.056C475.683 21.056 474.891 17.312 473.955 14.648L468.987 1.04H456.819L469.635 32.288V50ZM507.679 27.536L527.047 50.576H528.775V1.04H518.263V16.736C518.263 19.76 518.479 24.296 518.479 24.296L499.111 0.463998H497.383V50H507.895V35.096C507.895 31.928 507.679 27.536 507.679 27.536Z" fill="white"/>
</svg>
